HIERARCHY
ROOT joint_Root
{
	OFFSET 0.0 0.0 0.0
	CHANNELS 6 Xposition Yposition Zposition Zrotation Xrotation Yrotation 
	JOINT Hips
	{
		OFFSET -17.1583 93.1646 452.98
		CHANNELS 6 Xposition Yposition Zposition Zrotation Xrotation Yrotation 
		JOINT Spine
		{
			OFFSET 15.7357 0.0 0.0
			CHANNELS 6 Xposition Yposition Zposition Zrotation Xrotation Yrotation 
			JOINT Chest
			{
				OFFSET 8.98455 -0.406207 0.0
				CHANNELS 6 Xposition Yposition Zposition Zrotation Xrotation Yrotation 
				JOINT Neck
				{
					OFFSET 16.3773 0.0 0.0
					CHANNELS 6 Xposition Yposition Zposition Zrotation Xrotation Yrotation 
					JOINT Head
					{
						OFFSET 6.45672 0.0 0.0
						CHANNELS 6 Xposition Yposition Zposition Zrotation Xrotation Yrotation 
						End Site
						{
							OFFSET 0.0 0.0 0.0
						}
					}
				}
				JOINT Shoulder_L
				{
					OFFSET 12.9942 -0.242716 4.98039
					CHANNELS 6 Xposition Yposition Zposition Zrotation Xrotation Yrotation 
					JOINT UpperArm_L
					{
						OFFSET 5.34809 0.0 0.0
						CHANNELS 6 Xposition Yposition Zposition Zrotation Xrotation Yrotation 
						JOINT LowerArm_L
						{
							OFFSET 24.3286 1.87007e-05 0.0
							CHANNELS 6 Xposition Yposition Zposition Zrotation Xrotation Yrotation 
							JOINT Hand_L
							{
								OFFSET 22.2916 0.0 0.0
								CHANNELS 6 Xposition Yposition Zposition Zrotation Xrotation Yrotation 
								End Site
								{
									OFFSET 0.0 0.0 0.0
								}
							}
						}
					}
				}
				JOINT Shoulder_R
				{
					OFFSET 12.9945 -0.242716 -4.98039
					CHANNELS 6 Xposition Yposition Zposition Zrotation Xrotation Yrotation 
					JOINT UpperArm_R
					{
						OFFSET -5.34813 0.0 0.0
						CHANNELS 6 Xposition Yposition Zposition Zrotation Xrotation Yrotation 
						JOINT LowerArm_R
						{
							OFFSET -24.3289 0.000322201 0.0
							CHANNELS 6 Xposition Yposition Zposition Zrotation Xrotation Yrotation 
							JOINT Hand_R
							{
								OFFSET -22.2915 -0.000108084 0.0
								CHANNELS 6 Xposition Yposition Zposition Zrotation Xrotation Yrotation 
								End Site
								{
									OFFSET 0.0 0.0 0.0
								}
							}
						}
					}
				}
			}
		}
		JOINT UpperLeg_L
		{
			OFFSET -2.19248 -6.46944 0.0
			CHANNELS 6 Xposition Yposition Zposition Zrotation Xrotation Yrotation 
			JOINT LowerLeg_L
			{
				OFFSET 39.0811 0.0 -1.23785e-05
				CHANNELS 6 Xposition Yposition Zposition Zrotation Xrotation Yrotation 
				JOINT Foot_L
				{
					OFFSET 40.9854 0.0 -1.26872e-05
					CHANNELS 6 Xposition Yposition Zposition Zrotation Xrotation Yrotation 
					JOINT Toes_L
					{
						OFFSET 11.7543 0.0 0.0
						CHANNELS 6 Xposition Yposition Zposition Zrotation Xrotation Yrotation 
						End Site
						{
							OFFSET 0.0 0.0 0.0
						}
					}
				}
			}
		}
		JOINT UpperLeg_R
		{
			OFFSET -2.19251 6.46944 0.0
			CHANNELS 6 Xposition Yposition Zposition Zrotation Xrotation Yrotation 
			JOINT LowerLeg_R
			{
				OFFSET -39.0811 -0.00228153 -0.0401928
				CHANNELS 6 Xposition Yposition Zposition Zrotation Xrotation Yrotation 
				JOINT Foot_R
				{
					OFFSET -40.9854 0.0 0.0
					CHANNELS 6 Xposition Yposition Zposition Zrotation Xrotation Yrotation 
					JOINT Toes_R
					{
						OFFSET -11.7543 0.0 0.0
						CHANNELS 6 Xposition Yposition Zposition Zrotation Xrotation Yrotation 
						End Site
						{
							OFFSET 0.0 0.0 0.0
						}
					}
				}
			}
		}
	}
}
MOTION
Frames:	4
Frame Time:	0.0333333
0.000000 0.000000 0.000000 0.000000 0.000000 -0.000000 -181.814000 87.963300 243.089000 -6.536180 83.364500 94.880700 15.735700 0.000005 -0.000001 41.668500 86.541600 -38.028100 8.984550 -0.406207 -0.000000 -2.988230 -5.506010 7.142710 16.377300 -0.000001 -0.000001 5.127660 2.401120 -0.074734 6.456720 -0.000001 -0.000000 4.361610 5.868390 -1.185780 12.994200 -0.242716 4.980390 -92.648000 8.125470 -71.880800 5.348090 -0.000007 -0.000001 -78.015000 -3.938500 0.773038 24.328600 0.000019 0.000005 17.718000 32.276400 -30.887600 22.291600 -0.000001 0.000005 64.764700 4.239870 20.708400 12.994500 -0.242716 -4.980390 88.694700 3.357800 -68.742500 -5.348130 -0.000001 -0.000004 -68.309700 -5.144420 3.439830 -24.328900 0.000322 -0.000009 0.230863 2.309090 -5.758510 -22.291500 -0.000108 -0.000004 52.102600 5.327830 -0.720630 -2.192480 -6.469440 -0.000000 -169.888000 -5.517440 -6.950070 39.081100 -0.000007 -0.000012 0.256813 -0.172322 56.137900 40.985400 -0.000006 -0.000013 -14.382600 12.569200 -16.569600 11.754300 -0.000000 0.000003 0.001598 0.033679 -15.210600 -2.192510 6.469440 -0.000001 -168.218000 -13.500300 153.397000 -39.081100 -0.002282 -0.040193 0.350235 -0.411120 40.162600 -40.985400 0.000008 0.000006 3.224650 -11.677800 -70.341200 -11.754300 -0.000006 -0.000006 -0.010067 0.271803 -5.530610
0.000000 0.000000 0.000000 0.000000 0.000000 -0.000000 -178.047000 88.117700 243.326000 -7.352760 82.632800 97.007900 15.735700 0.000005 -0.000001 51.702200 86.607300 -48.025300 8.984550 -0.406207 -0.000000 -2.287610 -4.526270 7.266100 16.377300 -0.000001 -0.000001 4.732000 1.746610 0.653045 6.456720 -0.000001 -0.000000 4.228720 4.692060 -0.634739 12.994200 -0.242716 4.980390 -92.571100 7.803080 -71.699000 5.348090 -0.000007 -0.000001 -77.776600 -5.408920 2.567460 24.328600 0.000019 0.000005 13.146200 30.736100 -24.556400 22.291600 -0.000001 0.000005 63.138200 4.284550 20.030700 12.994500 -0.242716 -4.980390 88.569600 3.686360 -68.775200 -5.348130 -0.000001 -0.000004 -70.082900 -1.229720 0.474256 -24.328900 0.000322 -0.000009 0.168678 1.075460 -8.969960 -22.291500 -0.000108 -0.000004 50.398800 5.353920 -1.499490 -2.192480 -6.469440 -0.000000 -168.538000 -5.057740 -12.052300 39.081100 -0.000007 -0.000012 0.317462 -0.154870 63.994700 40.985400 -0.000006 -0.000013 -13.904800 12.582400 -23.302800 11.754300 -0.000000 0.000003 0.001709 0.036917 -15.079200 -2.192510 6.469440 -0.000001 -166.264000 -10.842400 157.862000 -39.081100 -0.002282 -0.040193 0.394654 -0.469820 39.796100 -40.985400 0.000008 0.000006 4.149110 -10.021100 -73.042500 -11.754300 -0.000006 -0.000006 -0.010074 0.271855 -5.528500
0.000000 0.000000 0.000000 0.000000 0.000000 -0.000000 -174.430000 88.604300 243.274000 -4.504600 83.086200 95.578700 15.735700 0.000005 -0.000001 62.530500 86.557600 -59.201500 8.984550 -0.406207 -0.000000 -1.549310 -3.445480 6.611170 16.377300 -0.000001 -0.000001 4.761830 1.466750 1.177230 6.456720 -0.000001 -0.000000 4.155070 3.667750 -0.084293 12.994200 -0.242716 4.980390 -92.436900 7.263440 -71.396200 5.348090 -0.000007 -0.000001 -76.475500 -7.188610 4.538340 24.328600 0.000019 0.000005 10.368300 29.860000 -20.176500 22.291600 -0.000001 0.000005 62.334800 4.258620 20.428800 12.994500 -0.242716 -4.980390 88.572500 3.735620 -69.069500 -5.348130 -0.000001 -0.000004 -71.256200 3.237730 -2.499650 -24.328900 0.000322 -0.000009 0.127086 0.546342 -13.235400 -22.291500 -0.000108 -0.000004 49.509200 5.370930 -2.016980 -2.192480 -6.469440 -0.000000 -169.006000 -4.841070 -16.340900 39.081100 -0.000007 -0.000012 0.325327 -0.127936 68.531900 40.985400 -0.000006 -0.000013 -12.280800 11.261800 -31.527900 11.754300 -0.000000 0.000003 0.001780 0.039098 -14.990800 -2.192510 6.469440 -0.000001 -166.069000 -8.262880 163.048000 -39.081100 -0.002282 -0.040193 0.389936 -0.495510 37.966100 -40.985400 0.000008 0.000006 4.843790 -7.771200 -75.044100 -11.754300 -0.000006 -0.000006 -0.009820 0.269954 -5.606250
0.000000 0.000000 0.000000 0.000000 0.000000 -0.000000 -171.019000 89.347700 243.008000 -1.447310 84.352800 93.514400 15.735700 0.000005 -0.000001 70.027700 86.506600 -67.328700 8.984550 -0.406207 -0.000000 -1.132810 -2.595380 5.370950 16.377300 -0.000001 -0.000001 5.002540 1.388650 1.423070 6.456720 -0.000001 -0.000000 4.301990 2.939550 0.495508 12.994200 -0.242716 4.980390 -92.292700 6.671030 -70.983400 5.348090 -0.000007 -0.000001 -74.027000 -10.592400 6.801710 24.328600 0.000019 0.000005 8.993600 29.033600 -18.061600 22.291600 -0.000001 0.000005 61.124600 4.245680 20.625300 12.994500 -0.242716 -4.980390 88.644100 3.616940 -69.434100 -5.348130 -0.000001 -0.000004 -71.752800 7.109400 -5.110770 -24.328900 0.000322 -0.000009 -0.092482 -0.268790 -18.624400 -22.291500 -0.000108 -0.000004 48.709300 5.387540 -2.539050 -2.192480 -6.469440 -0.000000 -171.022000 -4.240020 -20.139800 39.081100 -0.000007 -0.000012 0.261422 -0.095371 69.956100 40.985400 -0.000006 -0.000013 -9.245110 7.110970 -41.507000 11.754300 -0.000000 0.000003 0.001968 0.045487 -14.731700 -2.192510 6.469440 -0.000001 -167.393000 -6.547880 168.140000 -39.081100 -0.002282 -0.040193 0.289960 -0.410466 34.930800 -40.985400 0.000008 0.000006 4.120790 -5.708450 -75.931800 -11.754300 -0.000006 -0.000006 -0.009385 0.266652 -5.741240
